<svg id="Layer_1" data-name="Layer 1" xmlns="http://www.w3.org/2000/svg" viewBox="0 0 103.12 94.72"><path d="M296.47,357.17l23.71,10.91c3.41,1.57,6.81,3.16,10.23,4.7a1.53,1.53,0,0,1,1,1.62c0,13.27.05,26.55-.06,39.82-.07,9.42.18,18.85,0,28.27,0,1.06.26,1.33,1.32,1.32,5.19-.06,10.39,0,15.59-.05.9,0,1.14.24,1.14,1.14,0,3,0,3-2.92,3h-39a19.4,19.4,0,0,0,4.15-2.67c3.92-3.81,4.46-8.49,3.33-13.51a10.4,10.4,0,0,0-5.26-6.81c-1.14-.66-1.13-.69-.06-1.31a9.57,9.57,0,0,0,5.07-8.3c.19-3.87-.35-7.52-3.24-10.42-2.38-2.38-5.43-3.25-8.64-3.73a5.5,5.5,0,0,0-1.14-.23c-.85,0-1.09-.54-1.09-1.3,0-6.47-.12-12.93.08-19.39a3.05,3.05,0,0,0,.26-1.28c0-.55-.07-1.23.73-1.26s.69.73.75,1.25c0-.65.13-1.29.92-1.22s.59.84.62,1.25c0-1.24,0-1.18-1.28-1.14a2.85,2.85,0,0,1-1.67-.47c-.68-1.07-.26-2.26-.41-3.4a2.31,2.31,0,0,1,.41-.85,3.08,3.08,0,0,0,0-3.58,3.15,3.15,0,0,0-3.57-1.3c-1.91.42-1.91.42-1.91-1.55V358C295.61,357.47,295.51,356.8,296.47,357.17Z" transform="translate(-246.33 -353.16)" style="fill:#0072bc"/><path d="M288.53,370.87h1.67c.41.41.3,1,.4,1.46a2.3,2.3,0,0,0,2.41,2c.23,0,.52,0,.57-.3s-.16-.35-.35-.41c-.63-.2-1.22-.47-1.34-1.21a7.51,7.51,0,0,1,.05-2.95.42.42,0,0,1,.53-.35c.24.06.22.29.26.48.08.4-.22.86.18,1.22L295,371c.8.44.8,1.22.81,2,0,1.9-.1,3.81,0,5.72a14.57,14.57,0,0,1,0,3.79q0,8.32,0,16.64c0,.58.15,1.21-.36,1.69l-13.31.07c-1.72,0-1.93.23-1.93,1.94,0,14.56,0,29.11,0,43.67,0,1.07-.25,1.43-1.38,1.42q-15.58-.06-31.19,0c-1,0-1.37-.3-1.34-1.36,0-2.73,0-2.73,2.77-2.73,4.6,0,9.2,0,13.79,0,1.12,0,1.49-.21,1.48-1.41-.06-4.4,0-8.8,0-13.19.25.05.28.23.28.45-.07,4.45,0,8.91,0,13.37,0-4,0-8,0-12,0-.72-.29-1.57.69-2a1.72,1.72,0,0,1,2.39.9.82.82,0,0,1,.33-1,1.25,1.25,0,0,0,.36-1c0-.27,0-.63-.36-.65s-.35.25-.37.5.09.64-.33.65-.62-.33-.69-.71a1.22,1.22,0,0,1,.93-1.56c1.29-.37,2.07.17,2,1.48,0,.78.07,1.19,1.05,1,.76-.14,1.58.16,2.37.08.44,0,1.13.26,1.24-.34s.5-1.33-.22-1.86l-.33-.13c-2.21.05-4.4-.43-6.61-.14-.45.06-1.14-.67-1.34.35a.53.53,0,0,1-.24.23c-.65.14-1-.11-1-.78,0-.88-.34-2.12.71-2.41,1.25-.34,2.5-1,3.89-.73,1.28.52,1.45.42,1.56-.89,0-.38-.06-.89.34-1.07s.77.27,1.1.54c.88.73,1.46,2,3.07,1.67a15.86,15.86,0,0,0-1.93-2.06c-1.05-1.13-1.05-1.4.06-2.41a14.5,14.5,0,0,0,1.46-1.47,2,2,0,0,0-1.95.48,6.62,6.62,0,0,1-.88.79c-.8.53-1.17.37-1.25-.57s0-1.6,0-2.39c0-1.35-.22-1.48-1.59-1-.27.71.12,1.41,0,2.13-.14,1.06-.49,1.32-1.51.92a5.19,5.19,0,0,0-1-.33c-1.63-.29-2-.7-2-2.39,0-4.67,0-9.34,0-14a48.76,48.76,0,0,1,.19-7.64,1.1,1.1,0,0,0-.12-.61c.31.72-.11,1.4-.11,2.11.06,7.07,0,14.14.07,21.2,0,.3.05.57-.31.68q0-7.73-.05-15.45c0-5,0-10.06,0-15.09,0-1,.29-1.33,1.29-1.29,1.59.08,3.19,0,4.79,0,.86,0,1.11-.28,1.07-1.09-.05-1.12,0-2.24,0-3.35s.17-1.49,1.35-1.43c2.11.1,4.23,0,6.34,0,.15-.08.33-.15.44,0a1.33,1.33,0,0,0,1.77.18c.48-.43.23-1.07-.53-1.33A2.18,2.18,0,0,1,279.3,375a.6.6,0,0,1,.53-.54c.86-.11.93-.69.95-1.38s-.23-1.53.32-2.19l4.26-.06c.62-.54,1-.17,1.32.37a1.38,1.38,0,0,1-.58,1.86,2.6,2.6,0,0,1-2.2,0c-.46-.17-1.1-.63-1.35,0s.6.77,1.05,1a3.47,3.47,0,0,0,3.53-.29A2.32,2.32,0,0,0,288.2,372,1.57,1.57,0,0,1,288.53,370.87Z" transform="translate(-246.33 -353.16)" style="fill:#28aae2"/><path d="M301,379.78v16.83c0,1-.07,2.1,0,3.14a1.07,1.07,0,0,0,.29.75c.12.11.28.18.33.33l.14,0h-.17c-.53,0-1,0-1.54-.06s-1-.06-1.56-.07h-1.9c-.7,0-1-.14-1-.92,0-6.12,0-12.23.05-18.34,0-1.09.84-2,1.08-2.83.21-.3,0-.27,0-.24-.14.59-.4.88-.92.29-.51-1.51-.11-3.06-.22-4.59,0-.28.16-.52.43-.37,1.54.87,3.13.47,4.71.21.48.58.18,1.27.23,1.91a3.1,3.1,0,0,0,.26,1.47C300.78,378.11,301.08,379,301,379.78Z" transform="translate(-246.33 -353.16)" style="fill:#0072bc"/><path d="M299.77,440.74c-3,.32-6,0-9,.1-.61,0-.72-.43-.73-.89,0-3.51,0-7,0-10.52,0-.53.24-.81.8-.8l4.89.07c.51.46.42,1.08.43,1.67,0,2.66,0,5.33,0,8,0,2-.3,1.95,1.89,2C298.6,440.33,299.28,440.18,299.77,440.74Z" transform="translate(-246.33 -353.16)" style="fill:#28aae2"/><path d="M299.78,420.57a9.61,9.61,0,0,1-3.07.16c-1.91,0-3.82,0-5.74,0-.71,0-1-.24-1-1q0-4.84,0-9.68c0-.69.26-.9.92-.89,1.59.05,3.18,0,4.78.05.51.46.42,1.09.43,1.67,0,2.55,0,5.09,0,7.63,0,1.52.08,1.56,1.64,1.61C298.44,420.18,299.19,420,299.78,420.57Z" transform="translate(-246.33 -353.16)" style="fill:#28aae2"/><path d="M299.77,440.74c-1.11,0-2.22-.07-3.33-.05-.58,0-.78-.1-.77-.78.05-3.74,0-7.48,0-11.21a17.27,17.27,0,0,1,5.37.21,1.07,1.07,0,0,1,.36,1c0,3.35-.07,6.69,0,10a1,1,0,0,1-.18.56A2.79,2.79,0,0,1,299.77,440.74Z" transform="translate(-246.33 -353.16)" style="fill:#036fbd"/><path d="M273.93,426.22c.68,0,1,.34.88,1.09a2.19,2.19,0,0,0-.12.93c.26.9-.29.88-.89.94-1.49.15-3-.49-4.56.22a16.28,16.28,0,0,0,.07-1.93c0-.33.46-.88-.39-1-.68-.07-1.41-.39-1.83.34a1,1,0,0,0,.36,1.52c-.26-.54-.45-1.06.19-1.43s.94-.27,1.17.33a2.06,2.06,0,0,1-.94,2.28l.62.21a.94.94,0,0,1-1.4-.15c-.55-.71-1.12-.36-1.72-.2s-.59.76-.59,1.27c0,4.27,0,8.54,0,13a1.61,1.61,0,0,1-.24-1.19c0-4,0-8,0-12a2.37,2.37,0,0,0-.13-1.29c-.16-2.51-.07-5,0-7.51a24.12,24.12,0,0,0,0-2.82c0-.74,0-1.48,0-2.22a2.52,2.52,0,0,0,.14-1.41c0-7.82,0-15.64,0-23.78.45,1,1,1.7.34,2.6-.16.21-.09.62-.09.93q0,9.88,0,19.76c0,1.47.59,2.08,2.06,2.18a1.53,1.53,0,0,1,.68.13c1.22.71,1.18.71,1.28-.7a6.35,6.35,0,0,0-.14-1.17c0-.42-.31-1,.45-1.14a1.76,1.76,0,0,1,.36,1.23q0,3.33,0,6.67a1.54,1.54,0,0,1-.38,1.21c-.32,0-.64-.36-.9-.1-.68.65-1.28,1.22-2.3.54-.37-.25-.5.42-.77.62-.7.49-.3,1.36-.31,2.07s.55.43.91.49a1,1,0,0,1,.06,1.55s-.4.18,0,.12c.14,0,.26.08.39,0-.4-.52.3-1.31-.44-1.75-.07-.19-.49-.22-.27-.54a.76.76,0,0,1,.82-.37c1.49.48,3,0,4.53.24,1,.16,2.07-.21,3.1.15-.17.28-.42.27-.64.35A.59.59,0,0,0,273.93,426.22Z" transform="translate(-246.33 -353.16)" style="fill:#28aae2"/><path d="M299.78,420.57c-1,0-2.07-.07-3.1,0-.8,0-1-.27-1-1,0-3.42,0-6.84,0-10.26,1.79,0,3.6-.3,5.36.32.45.22.41.63.4,1-.11,2.66,0,5.32-.05,8a2.38,2.38,0,0,1-.37,1.7A2,2,0,0,1,299.78,420.57Z" transform="translate(-246.33 -353.16)" style="fill:#036fbd"/><path d="M301.25,440.46a6.74,6.74,0,0,1-.25-2.36q0-4.59,0-9.19c3.23.37,5.27,3.4,4.67,6.95A5.2,5.2,0,0,1,301.25,440.46Z" transform="translate(-246.33 -353.16)" style="fill:#036fbd"/><path d="M301,420.28c.08-3.46-.21-6.93.15-10.38,0-.11-.09-.22-.13-.33a5.24,5.24,0,0,1,4.28,5.63A5,5,0,0,1,301,420.28Z" transform="translate(-246.33 -353.16)" style="fill:#0470bc"/><path d="M300.76,374a4.32,4.32,0,0,1-5.05-.16c.07,1.67-.24,3.21.26,4.74,0,.1.06.22-.07.25s-.31-.11-.41-.26c0-1.77,0-3.54,0-5.31A3.77,3.77,0,0,0,295,371c.87-.1.66-.78.63-1.28-.26-4,0-7.95-.12-11.92,0-.71,0-1.32.93-.59-.59,0-.72.29-.72.82,0,3.2,0,6.39,0,9.59,0,1,.34.81,1,.51a3.52,3.52,0,0,1,4.27.69C302.49,370.28,302.41,372,300.76,374Z" transform="translate(-246.33 -353.16)" style="fill:#0072bc"/><path d="M288.53,370.87A3.13,3.13,0,0,1,287,374.3c-1.56.85-3,.3-4.43-.29-.31-.13-.9-.45-.54-1s.67-1,1.36-.54a3,3,0,0,0,2.27.52,1.1,1.1,0,0,0,1-1.28c-.08-.68-.44-1.11-1.22-.88,0-3.71,0-7.41.06-11.11,0-.37-.17-.81.3-1.07s1.15.06,1.16.91c0,3.19,0,6.37,0,9.56C286.86,370.84,286.83,370.84,288.53,370.87Z" transform="translate(-246.33 -353.16)" style="fill:#28aae2"/><path d="M291.62,366.08a3.26,3.26,0,0,1-.15-1.42c0-3.48,0-7,0-10.43,0-.52-.08-1.1.74-1.07s.66.55.66,1q0,6.78,0,13.55c-.63.34-.85,0-.92-.57C291.85,366.79,292,366.38,291.62,366.08Z" transform="translate(-246.33 -353.16)" style="fill:#39acdc"/><path d="M281.1,370.89c0,.72,0,1.44,0,2.16s.29,1.88-1.21,1.67c-.35,0-.41.28-.45.58a1.73,1.73,0,0,0,1.5,2.11c.63.17,1.19.53,1.11,1.34s-.56.93-1.24,1a1.52,1.52,0,0,1-1.67-.78c0-2.11.06-4.23.07-6.34C279.21,370.83,279.21,370.83,281.1,370.89Z" transform="translate(-246.33 -353.16)" style="fill:#28aae2"/><path d="M291.62,366.08c.61,0,.49.5.49.87s.08.86.7.79c0,1,.07,2.06.1,3.09-.63-.35,0-1.09-.75-1.74a13.83,13.83,0,0,0,.11,3.62.83.83,0,0,0,1,.53c.88-.11.9.58.91,1.08s-.59.36-.91.37c-2.24.06-3-.9-3-3.81.92.09,1.34-.21,1.28-1.24S291.57,367.26,291.62,366.08Z" transform="translate(-246.33 -353.16)" style="fill:#28aae2"/><path d="M295.55,378.52c.16,0,.32.27.48,0,.19,0,.38.6.57,0a9.37,9.37,0,0,0,.19-.92.4.4,0,0,1,.58-.25c.4.13.11.31,0,.51-.32.8-.42,1.94-.82,2.38-1.71,1.92-.63,4.05-.73,6-.21,4.39,0,8.79-.08,13.18,0,.91.28,1.15,1.16,1.16a7.39,7.39,0,0,1,3.17.18c-1.52.08-2.9,0-4.58-.05,0-5.51,0-11,0-16.53C295.56,382.33,295.55,380.42,295.55,378.52Z" transform="translate(-246.33 -353.16)" style="fill:#3678bd"/><path d="M264.38,418.88a5.5,5.5,0,0,1,0,2.82C264.39,420.76,264.39,419.82,264.38,418.88Z" transform="translate(-246.33 -353.16)" style="fill:#28aae2"/><path d="M325.72,423.67a4.38,4.38,0,0,1-2.52-.69c-.42-.22-.83-.5-.43-1s.63-1,1.35-.51a2.31,2.31,0,0,0,2.44.52,1.17,1.17,0,0,0,.82-.92,1.06,1.06,0,0,0-.62-1.19c-.71-.36-1.46-.65-2.17-1-1.31-.64-2-1.56-1.73-2.69a2.82,2.82,0,0,1,2.23-2.22,5.08,5.08,0,0,1,3,.24c.36.13.83.3.54.84s-.4,1-1.13.76a3.08,3.08,0,0,0-1.74-.29c-.48.11-.95.28-1,.86a1,1,0,0,0,.68,1c.5.25,1,.49,1.52.71,1.69.69,2.56,1.9,2.27,3.21C328.93,422.8,327.64,423.68,325.72,423.67Z" transform="translate(-246.33 -353.16)" style="fill:#0072bc"/><path d="M316.64,367.94c-.84.8-1.57,1.53-2.34,2.2-.57.5-.66.88,0,1.43.87.77,1.66,1.62,2.47,2.45.32.33.44.63-.21.66-.84,0-1.69.11-2.26-.73a1.86,1.86,0,0,0-.42-.42c-.63-.5-1-1.61-1.84-1.46-.44.09-.14,1.3-.18,2s-.48.61-.92.63-.79-.07-.78-.63c0-2.84,0-5.67,0-8.5,0-.62.33-.71.84-.72s.88.16.86.81c0,1.12,0,2.23,0,3.35,0,.26-.15.62.18.75s.5-.2.67-.39C313.66,368.23,314.7,367.28,316.64,367.94Z" transform="translate(-246.33 -353.16)" style="fill:#0072bc"/><path d="M306.32,374.7a3.64,3.64,0,0,1-3.51-2.17,3.94,3.94,0,0,1,.82-3.89,4.37,4.37,0,0,1,4.49-.51c.36.23,1.15.5.74,1.09-.29.42-.77,1.07-1.64.46a1.75,1.75,0,0,0-2.53.51,1.61,1.61,0,0,0,.13,2.18,1.89,1.89,0,0,0,2.5.39c.26-.14.46-.57.81-.34s.89.34.95.83-.35.6-.63.81A2.88,2.88,0,0,1,306.32,374.7Z" transform="translate(-246.33 -353.16)" style="fill:#0072bc"/><path d="M318.15,382.09c-2.23,0-2.23,0-2.23-2.18s0-2.25,2.19-2.24c2.52,0,2.22-.35,2.23,2.21C320.34,382.08,320.33,382.08,318.15,382.09Z" transform="translate(-246.33 -353.16)" style="fill:#fafdfb"/><path d="M318.1,388.19c-2.18,0-2.18,0-2.18-2.18s0-2.16,2.12-2.16c2.3,0,2.3,0,2.3,2.32C320.34,388.19,320.34,388.19,318.1,388.19Z" transform="translate(-246.33 -353.16)" style="fill:#f8fcfa"/><path d="M322.1,379.81c0-2.15,0-2.15,2.13-2.14s2.24,0,2.23,2.29,0,2.13-2.14,2.13S322.08,382.08,322.1,379.81Z" transform="translate(-246.33 -353.16)" style="fill:#f6fbf9"/><path d="M312,394.39c-2.18,0-2.18,0-2.18-2.2s0-2.17,2.19-2.18,2.18,0,2.18,2.19S314.17,394.38,312,394.39Z" transform="translate(-246.33 -353.16)" style="fill:#f9fcfc"/><path d="M326.46,392.19c0,2.19,0,2.19-2.2,2.19s-2.16,0-2.16-2.11,0-2.25,2.26-2.25C326.46,390,326.46,390,326.46,392.19Z" transform="translate(-246.33 -353.16)" style="fill:#fbfdfc"/><path d="M314.18,386c0,2.15,0,2.15-2.12,2.16s-2.26,0-2.26-2.23,0-2.13,2.16-2.12S314.17,383.85,314.18,386Z" transform="translate(-246.33 -353.16)" style="fill:#f0f8fa"/><path d="M320,420.24c0-.8,0-1.6,0-2.4s.31-.93,1-.92.95.13.94.86c0,1.67,0,3.35,0,5,0,.72-.31.86-.94.87s-1.05-.14-1-.92S320,421.07,320,420.24Z" transform="translate(-246.33 -353.16)" style="fill:#0072bc"/><path d="M309.85,379.72c-.82.25-1.5.24-1.93-.56a1.09,1.09,0,0,1,.2-1.4c.67-.77,1.5-.18,2.23-.36,0,0,.1,0,.1.06a16.28,16.28,0,0,1-.18,2.33,1.19,1.19,0,0,1-1.14.91,1,1,0,0,1-1-.59C308.68,380,309.41,380.58,309.85,379.72Z" transform="translate(-246.33 -353.16)" style="fill:#0072bc"/><path d="M320.21,427.72c-.23-.58.55-1.22-.1-1.79a.35.35,0,0,1,.08-.28c.14-.07.38-.06.4.1.07.76.54.6,1.06.57a1.09,1.09,0,0,1,1.16,1,1.17,1.17,0,0,1-.65,1.38c-.63.36-1.25,0-1.84-.05S320.35,428,320.21,427.72Z" transform="translate(-246.33 -353.16)" style="fill:#0072bc"/><path d="M307.78,377.28a2.12,2.12,0,0,0-.28,2.39c-2,.22-3-.14-2.85-1.09C304.92,376.73,306.45,377.6,307.78,377.28Z" transform="translate(-246.33 -353.16)" style="fill:#0072bc"/><path d="M321,416.18c-.72-.15-1.32-.38-1.29-1.19a1.17,1.17,0,0,1,2.34,0A1.25,1.25,0,0,1,321,416.18Z" transform="translate(-246.33 -353.16)" style="fill:#0072bc"/><path d="M301,379.78c-.67-.65,0-1.52-.35-2.24-.07-.12.38-.16.6-.2.7-.09,1.37.48,2.13.06.22-.12.67.17.74.61s-.09,1,.25,1.38c.11.15.08.31-.14.33a1.48,1.48,0,0,1-.47,0c-.23-.05-.18-.19-.1-.35a1.41,1.41,0,0,0,.2-.55c0-.45,0-1-.59-1s-.58.45-.58.87a3,3,0,0,0,.05.6c.06.24,0,.39-.25.4s-.33-.14-.34-.44c0-.5.48-1.45-.47-1.38s-.38.95-.35,1.49C301.34,379.69,301.19,379.72,301,379.78Z" transform="translate(-246.33 -353.16)" style="fill:#0072bc"/><path d="M328.29,427.25h1.18c.41,0,.56.24.55.61s0,.74-.57.69a4.39,4.39,0,0,0-.93.15,1.43,1.43,0,0,1-1.71-1,1.5,1.5,0,0,1,.6-1.79,2,2,0,0,1,2.15-.1.31.31,0,0,1,.17.4c-.09.27-.28.2-.47.12a3.44,3.44,0,0,0-.66-.28,1.11,1.11,0,0,0-1.17.44,1,1,0,0,0-.16,1.12,1.49,1.49,0,0,0,1.16.76.68.68,0,0,0,.74-.51C329.3,427.23,328.54,427.7,328.29,427.25Z" transform="translate(-246.33 -353.16)" style="fill:#0072bc"/><path d="M313.22,379.08c-.59.75-1.13,1.08-1.88.53a1.14,1.14,0,0,1-.28-1.69,1.13,1.13,0,0,1,1.67-.36.76.76,0,0,1,.48.87c-.09.43-.48.33-.78.35s-.32,0-.48,0-.55-.05-.49.32.3.33.55.37C312.43,379.56,312.66,379.07,313.22,379.08Z" transform="translate(-246.33 -353.16)" style="fill:#0072bc"/><path d="M324.14,427.84a1.75,1.75,0,0,0,.49-1.17c0-.27.27-.4.54-.26s.07.27,0,.46c-.31.79-.91,1.49-.73,2.44.05.3-.23.3-.41.19s-.62,0-.42-.33c.52-.9-.14-1.5-.44-2.2-.09-.19-.4-.35-.11-.58a.59.59,0,0,1,.46-.06c.37.06.36.22.25.58A.79.79,0,0,0,324.14,427.84Z" transform="translate(-246.33 -353.16)" style="fill:#0072bc"/><path d="M314.3,378.05c0,.21.18.24.31.32.39.24,1,.39.67,1s-.91.34-1.4.33a.31.31,0,0,1-.32-.4c.08-.32.32-.33.54-.15s.47.49.66.16-.24-.49-.5-.62-.66-.46-.49-.93.51-.45.89-.43.5.08.45.4C315,378.32,314.44,377.58,314.3,378.05Z" transform="translate(-246.33 -353.16)" style="fill:#0072bc"/><path d="M269.09,423.17c0-3,0-6.07,0-9.11a7.63,7.63,0,0,0,.83,0c.85-.11,1.12.25,1.08,1.08-.06,1.17,0,2.35,0,3.76,1.5-.88,2.39-2.75,4.39-1.78a19.19,19.19,0,0,1-2.11,2.12c-.78.58-.62,1,0,1.49.93.86,1.85,1.74,3,2.85-1.27,0-2.2.42-3-.43l-2-2.3a4.26,4.26,0,0,0-.25,1.79c0,.36.17.94-.4,1S269.37,424.05,269.09,423.17Z" transform="translate(-246.33 -353.16)" style="fill:#28aae2"/><path d="M273.18,382.88c0-2.13,0-2.13,2.2-2.13s2.25,0,2.18,2.23-.07,2.24-2.25,2.22C272.78,385.17,273.22,385.48,273.18,382.88Z" transform="translate(-246.33 -353.16)" style="fill:#f3faf9"/><path d="M281.58,393.11c2.58,0,2.14-.24,2.15,2.16,0,2.19,0,2.19-2.22,2.19s-2.12,0-2.14-2.13S279.35,393.12,281.58,393.11Z" transform="translate(-246.33 -353.16)" style="fill:#f7fcfb"/><path d="M275.27,397.47c-2.09,0-2.09,0-2.09-2.07,0-2.27,0-2.28,2.26-2.28,2.45,0,2.09-.21,2.12,2.09S277.57,397.46,275.27,397.47Z" transform="translate(-246.33 -353.16)" style="fill:#f5fcfb"/><path d="M281.61,386.93c2.44.05,2.13-.34,2.12,2.19s.4,2.17-2.13,2.17-2.19.3-2.23-2.19C279.35,386.92,279.37,386.92,281.61,386.93Z" transform="translate(-246.33 -353.16)" style="fill:#f5fcfa"/><path d="M271.46,401.56c0,2.29.34,2-2,2s-2.34,0-2.33-2.32c0-2,0-2.06,2-2C271.73,399.24,271.44,398.81,271.46,401.56Z" transform="translate(-246.33 -353.16)" style="fill:#f6fbfc"/><path d="M269.24,391.3c-2.14,0-2.14,0-2.15-2.16s0-2.22,2.22-2.21c2.48,0,2.13-.27,2.15,2.18C271.48,391.3,271.47,391.3,269.24,391.3Z" transform="translate(-246.33 -353.16)" style="fill:#f6fbfb"/><path d="M299.43,376.62c.28,0,.63,0,.5.44a5.59,5.59,0,0,0-.06,2.34c.06.5-.33.34-.56.33-.39,0-.25-.21-.16-.46a2.89,2.89,0,0,0,0-2.18C299,376.67,299.09,376.62,299.43,376.62Z" transform="translate(-246.33 -353.16)" style="fill:#0072bc"/><path d="M264.78,420.26c0-1.54,0-1.54,1.45-1a1.23,1.23,0,0,0,1.35-.06c.9-.75,1.17-.17,1.26.64a2,2,0,0,1-.11,1.29c-.17.28-.37.68-.83.32a1.28,1.28,0,0,0-1.8.05C265.26,422.18,264.77,421.69,264.78,420.26Z" transform="translate(-246.33 -353.16)" style="fill:#28aae2"/><path d="M272,426.62c.38.88.12,1.06-.44,1.12-.38,0-1-.3-1.07.33s.72.27,1.16.53c-.66.12-1.21.24-1.56-.4-.17-.33-.34-.67-.07-1,.47-.59.3.28.6.28C271.15,427.49,271.69,427.55,272,426.62Z" transform="translate(-246.33 -353.16)" style="fill:#28aae2"/><path d="M265.75,426.74l.79-.27a2.11,2.11,0,0,0-.06,2.18h-1.79c1.2-.39,1.47-1,1-1.86Z" transform="translate(-246.33 -353.16)" style="fill:#28aae2"/><path d="M273.57,427.45c.69.18,1,.49.67.91s-.92.35-1.75.13C273.18,428.23,274.4,428.81,273.57,427.45Z" transform="translate(-246.33 -353.16)" style="fill:#28aae2"/><path d="M272.71,427.06c.06-.81.58-.8,1.06-.76.32,0,.29.57,0,.5C273.37,426.71,273.14,427.06,272.71,427.06Z" transform="translate(-246.33 -353.16)" style="fill:#28aae2"/><path d="M298.37,373a1.83,1.83,0,0,1-1.88-1.74,1.9,1.9,0,0,1,1.91-1.87,1.81,1.81,0,1,1,0,3.61Z" transform="translate(-246.33 -353.16)" style="fill:#0072bc"/><path d="M286.62,362c0,.71,0,1.43,0,2.14,0,.23.16.63-.34.58-.27,0-.59-.08-.59-.46,0-1.62,0-3.25,0-4.88a.41.41,0,0,1,.45-.44c.37,0,.48.25.48.56V362Z" transform="translate(-246.33 -353.16)" style="fill:#34abdb"/></svg>